<?xml version="1.0" encoding="utf-8"?>
<!-- Generator: Adobe Illustrator 22.0.1, SVG Export Plug-In . SVG Version: 6.00 Build 0)  -->
<svg version="1.1" id="Layer_1" xmlns="http://www.w3.org/2000/svg" xmlns:xlink="http://www.w3.org/1999/xlink" x="0px" y="0px"
	 viewBox="0 0 426.8 237" style="enable-background:new 0 0 426.8 237;" xml:space="preserve">
<style type="text/css">
	.st0{fill:#FFE04A;}
	.st1{fill:#FFFFFF;}
</style>
<circle cx="231.8" cy="125.5" r="110"/>
<g>
	<path class="st0" d="M152.7,115h3.4v6.5c-0.9,0.7-1.9,1.2-3,1.5c-1.1,0.4-2.3,0.5-3.5,0.5c-1.7,0-3.2-0.4-4.5-1.1s-2.4-1.7-3.1-3
		c-0.8-1.3-1.1-2.7-1.1-4.3s0.4-3,1.1-4.3c0.8-1.3,1.8-2.3,3.2-3c1.3-0.7,2.9-1.1,4.6-1.1c1.4,0,2.7,0.2,3.8,0.7
		c1.2,0.5,2.1,1.2,2.9,2.1l-2.4,2.2c-1.1-1.2-2.5-1.8-4.2-1.8c-1,0-1.9,0.2-2.7,0.6c-0.8,0.4-1.4,1-1.9,1.8
		c-0.4,0.8-0.7,1.7-0.7,2.7c0,1,0.2,1.9,0.7,2.7c0.4,0.8,1.1,1.4,1.9,1.8c0.8,0.4,1.7,0.7,2.7,0.7c1.1,0,2-0.2,2.9-0.7V115z"/>
	<path class="st0" d="M167.6,107.2h3.7v13.1h8.1v3h-11.8V107.2z"/>
	<path class="st0" d="M192.5,122.5c-1.3-0.7-2.4-1.7-3.2-3c-0.8-1.3-1.1-2.7-1.1-4.3s0.4-3,1.1-4.3c0.8-1.3,1.8-2.3,3.2-3
		c1.3-0.7,2.8-1.1,4.5-1.1c1.7,0,3.2,0.4,4.5,1.1s2.4,1.7,3.2,3c0.8,1.3,1.1,2.7,1.1,4.3s-0.4,3-1.1,4.3c-0.8,1.3-1.8,2.3-3.2,3
		c-1.3,0.7-2.8,1.1-4.5,1.1C195.4,123.6,193.9,123.2,192.5,122.5z M199.6,119.8c0.8-0.4,1.4-1,1.8-1.8c0.4-0.8,0.7-1.7,0.7-2.7
		s-0.2-1.9-0.7-2.7c-0.4-0.8-1-1.4-1.8-1.8c-0.8-0.4-1.6-0.7-2.6-0.7c-1,0-1.8,0.2-2.6,0.7s-1.4,1-1.8,1.8c-0.4,0.8-0.7,1.7-0.7,2.7
		s0.2,1.9,0.7,2.7c0.4,0.8,1,1.4,1.8,1.8c0.8,0.4,1.6,0.7,2.6,0.7C198,120.4,198.9,120.2,199.6,119.8z"/>
	<path class="st0" d="M227,123.3l-3.1-4.5h-0.2h-3.2v4.5h-3.7v-16.1h7c1.4,0,2.7,0.2,3.7,0.7c1.1,0.5,1.9,1.2,2.4,2s0.9,1.9,0.9,3.1
		c0,1.2-0.3,2.2-0.9,3.1c-0.6,0.9-1.4,1.5-2.4,2l3.6,5.2H227z M226,111c-0.6-0.5-1.4-0.7-2.6-0.7h-3v5.6h3c1.1,0,2-0.2,2.6-0.7
		s0.9-1.2,0.9-2.1C226.9,112.2,226.6,111.5,226,111z"/>
	<path class="st0" d="M241.7,107.2h3.7v16.1h-3.7V107.2z"/>
	<path class="st0" d="M260.5,122.5c-1.3-0.7-2.4-1.7-3.2-3c-0.8-1.3-1.1-2.7-1.1-4.3s0.4-3,1.1-4.3c0.8-1.3,1.8-2.3,3.2-3
		s2.8-1.1,4.5-1.1s3.2,0.4,4.5,1.1s2.4,1.7,3.2,3s1.2,2.7,1.2,4.3s-0.4,3-1.2,4.3s-1.8,2.3-3.2,3c-1.3,0.7-2.8,1.1-4.5,1.1
		S261.9,123.2,260.5,122.5z M267.6,119.8c0.8-0.4,1.4-1,1.8-1.8c0.4-0.8,0.7-1.7,0.7-2.7s-0.2-1.9-0.7-2.7c-0.4-0.8-1-1.4-1.8-1.8
		s-1.6-0.7-2.6-0.7s-1.8,0.2-2.6,0.7s-1.4,1-1.8,1.8c-0.4,0.8-0.7,1.7-0.7,2.7s0.2,1.9,0.7,2.7c0.4,0.8,1,1.4,1.8,1.8
		c0.8,0.4,1.6,0.7,2.6,0.7S266.9,120.2,267.6,119.8z"/>
	<path class="st0" d="M286.5,121.7c-1.3-1.3-1.9-3.1-1.9-5.5v-9h3.7v8.9c0,2.9,1.2,4.3,3.6,4.3c1.2,0,2.1-0.3,2.7-1s0.9-1.8,0.9-3.3
		v-8.9h3.7v9c0,2.4-0.6,4.2-1.9,5.5c-1.3,1.3-3.1,1.9-5.4,1.9C289.6,123.6,287.8,123,286.5,121.7z"/>
	<path class="st0" d="M312.5,123.1c-1.2-0.3-2.1-0.8-2.9-1.3l1.3-2.8c0.7,0.5,1.5,0.9,2.5,1.2c1,0.3,1.9,0.5,2.9,0.5
		c1.1,0,1.8-0.2,2.3-0.5c0.5-0.3,0.8-0.7,0.8-1.3c0-0.4-0.1-0.7-0.4-1c-0.3-0.3-0.7-0.5-1.2-0.6s-1.1-0.3-1.9-0.5
		c-1.2-0.3-2.2-0.6-3-0.9c-0.8-0.3-1.5-0.8-2-1.4c-0.6-0.6-0.8-1.5-0.8-2.6c0-0.9,0.3-1.8,0.8-2.5c0.5-0.8,1.3-1.4,2.3-1.8
		c1-0.4,2.3-0.7,3.7-0.7c1,0,2,0.1,3,0.4s1.8,0.6,2.6,1.1l-1.1,2.8c-1.5-0.8-3-1.3-4.5-1.3c-1,0-1.8,0.2-2.3,0.5
		c-0.5,0.3-0.7,0.8-0.7,1.3c0,0.6,0.3,1,0.9,1.2c0.6,0.3,1.5,0.5,2.6,0.8c1.2,0.3,2.2,0.6,3,0.9c0.8,0.3,1.5,0.8,2,1.4
		c0.6,0.6,0.8,1.5,0.8,2.6c0,0.9-0.3,1.8-0.8,2.5c-0.5,0.8-1.3,1.4-2.3,1.8c-1,0.4-2.3,0.7-3.7,0.7
		C314.9,123.6,313.7,123.4,312.5,123.1z"/>
	<path class="st0" d="M190.3,151.3h-5.2v-3h14v3h-5.2v13.1h-3.7V151.3z"/>
	<path class="st0" d="M221.7,161.3v3h-12.5v-16.1h12.2v3H213v3.5h7.5v2.9H213v3.7H221.7z"/>
	<path class="st0" d="M243.3,160.9h-7.5l-1.4,3.5h-3.8l7.2-16.1h3.7l7.2,16.1h-3.9L243.3,160.9z M242.2,158l-2.6-6.2l-2.6,6.2H242.2
		z"/>
	<path class="st0" d="M273.1,164.3l0-9.7l-4.7,8h-1.7l-4.7-7.8v9.5h-3.5v-16.1h3.1l6,10l5.9-10h3.1l0,16.1H273.1z"/>
</g>
<g>
	<path class="st1" d="M148.9,112.2h3.4v6.5c-0.9,0.7-1.9,1.2-3,1.5c-1.1,0.4-2.3,0.5-3.5,0.5c-1.7,0-3.2-0.4-4.5-1.1s-2.4-1.7-3.1-3
		c-0.8-1.3-1.1-2.7-1.1-4.3s0.4-3,1.1-4.3c0.8-1.3,1.8-2.3,3.2-3c1.3-0.7,2.9-1.1,4.6-1.1c1.4,0,2.7,0.2,3.8,0.7
		c1.2,0.5,2.1,1.2,2.9,2.1l-2.4,2.2c-1.1-1.2-2.5-1.8-4.2-1.8c-1,0-1.9,0.2-2.7,0.6c-0.8,0.4-1.4,1-1.9,1.8
		c-0.4,0.8-0.7,1.7-0.7,2.7c0,1,0.2,1.9,0.7,2.7c0.4,0.8,1.1,1.4,1.9,1.8c0.8,0.4,1.7,0.7,2.7,0.7c1.1,0,2-0.2,2.9-0.7V112.2z"/>
	<path class="st1" d="M163.8,104.4h3.7v13.1h8.1v3h-11.8V104.4z"/>
	<path class="st1" d="M188.8,119.7c-1.3-0.7-2.4-1.7-3.2-3c-0.8-1.3-1.1-2.7-1.1-4.3s0.4-3,1.1-4.3c0.8-1.3,1.8-2.3,3.2-3
		c1.3-0.7,2.8-1.1,4.5-1.1c1.7,0,3.2,0.4,4.5,1.1s2.4,1.7,3.2,3c0.8,1.3,1.1,2.7,1.1,4.3s-0.4,3-1.1,4.3c-0.8,1.3-1.8,2.3-3.2,3
		c-1.3,0.7-2.8,1.1-4.5,1.1C191.6,120.8,190.1,120.4,188.8,119.7z M195.9,116.9c0.8-0.4,1.4-1,1.8-1.8c0.4-0.8,0.7-1.7,0.7-2.7
		s-0.2-1.9-0.7-2.7c-0.4-0.8-1-1.4-1.8-1.8c-0.8-0.4-1.6-0.7-2.6-0.7c-1,0-1.8,0.2-2.6,0.7s-1.4,1-1.8,1.8c-0.4,0.8-0.7,1.7-0.7,2.7
		s0.2,1.9,0.7,2.7c0.4,0.8,1,1.4,1.8,1.8s1.6,0.7,2.6,0.7C194.2,117.6,195.1,117.4,195.9,116.9z"/>
	<path class="st1" d="M223.2,120.5l-3.1-4.5h-0.2h-3.2v4.5H213v-16.1h7c1.4,0,2.7,0.2,3.7,0.7c1,0.5,1.9,1.2,2.4,2
		c0.6,0.9,0.9,1.9,0.9,3.1c0,1.2-0.3,2.2-0.9,3.1c-0.6,0.9-1.4,1.5-2.4,2l3.6,5.2H223.2z M222.3,108.2c-0.6-0.5-1.4-0.7-2.6-0.7h-3
		v5.6h3c1.1,0,2-0.2,2.6-0.7c0.6-0.5,0.9-1.2,0.9-2.1C223.1,109.3,222.9,108.6,222.3,108.2z"/>
	<path class="st1" d="M237.9,104.4h3.7v16.1h-3.7V104.4z"/>
	<path class="st1" d="M256.8,119.7c-1.3-0.7-2.4-1.7-3.2-3c-0.8-1.3-1.1-2.7-1.1-4.3s0.4-3,1.1-4.3s1.8-2.3,3.2-3
		c1.3-0.7,2.8-1.1,4.5-1.1c1.7,0,3.2,0.4,4.5,1.1s2.4,1.7,3.2,3s1.2,2.7,1.2,4.3s-0.4,3-1.2,4.3c-0.8,1.3-1.8,2.3-3.2,3
		c-1.3,0.7-2.8,1.1-4.5,1.1C259.6,120.8,258.1,120.4,256.8,119.7z M263.9,116.9c0.8-0.4,1.4-1,1.8-1.8c0.4-0.8,0.7-1.7,0.7-2.7
		s-0.2-1.9-0.7-2.7c-0.4-0.8-1-1.4-1.8-1.8c-0.8-0.4-1.6-0.7-2.6-0.7c-1,0-1.8,0.2-2.6,0.7c-0.8,0.4-1.4,1-1.8,1.8
		c-0.4,0.8-0.7,1.7-0.7,2.7s0.2,1.9,0.7,2.7c0.4,0.8,1,1.4,1.8,1.8c0.8,0.4,1.6,0.7,2.6,0.7C262.3,117.6,263.1,117.4,263.9,116.9z"
		/>
	<path class="st1" d="M282.8,118.9c-1.3-1.3-1.9-3.1-1.9-5.5v-9h3.7v8.9c0,2.9,1.2,4.3,3.6,4.3c1.2,0,2.1-0.3,2.7-1s0.9-1.8,0.9-3.3
		v-8.9h3.7v9c0,2.4-0.6,4.2-1.9,5.5c-1.3,1.3-3.1,1.9-5.4,1.9C285.8,120.8,284,120.1,282.8,118.9z"/>
	<path class="st1" d="M308.7,120.2c-1.2-0.3-2.1-0.8-2.9-1.3l1.3-2.8c0.7,0.5,1.5,0.9,2.5,1.2c1,0.3,1.9,0.5,2.9,0.5
		c1.1,0,1.8-0.2,2.3-0.5c0.5-0.3,0.8-0.7,0.8-1.3c0-0.4-0.1-0.7-0.4-1c-0.3-0.3-0.7-0.5-1.2-0.6s-1.1-0.3-1.9-0.5
		c-1.2-0.3-2.2-0.6-3-0.9c-0.8-0.3-1.5-0.8-2-1.4c-0.6-0.6-0.8-1.5-0.8-2.6c0-0.9,0.3-1.8,0.8-2.5c0.5-0.8,1.3-1.4,2.3-1.8
		c1-0.4,2.3-0.7,3.7-0.7c1,0,2,0.1,3,0.4s1.8,0.6,2.6,1.1l-1.1,2.8c-1.5-0.8-3-1.3-4.5-1.3c-1,0-1.8,0.2-2.3,0.5
		c-0.5,0.3-0.7,0.8-0.7,1.3c0,0.6,0.3,1,0.9,1.2c0.6,0.3,1.5,0.5,2.6,0.8c1.2,0.3,2.2,0.6,3,0.9c0.8,0.3,1.5,0.8,2,1.4
		c0.6,0.6,0.8,1.5,0.8,2.6c0,0.9-0.3,1.8-0.8,2.5c-0.5,0.8-1.3,1.4-2.3,1.8c-1,0.4-2.3,0.7-3.7,0.7
		C311.2,120.8,309.9,120.6,308.7,120.2z"/>
	<path class="st1" d="M186.6,148.4h-5.2v-3h14v3h-5.2v13.1h-3.7V148.4z"/>
	<path class="st1" d="M218,158.5v3h-12.5v-16.1h12.2v3h-8.5v3.5h7.5v2.9h-7.5v3.7H218z"/>
	<path class="st1" d="M239.6,158h-7.5l-1.4,3.5h-3.8l7.2-16.1h3.7l7.2,16.1H241L239.6,158z M238.4,155.2l-2.6-6.2l-2.6,6.2H238.4z"
		/>
	<path class="st1" d="M269.3,161.5l0-9.7l-4.7,8h-1.7l-4.7-7.8v9.5h-3.5v-16.1h3.1l6,10l5.9-10h3.1l0,16.1H269.3z"/>
</g>
<circle cx="60.2" cy="60.2" r="60.2"/>
<circle cx="384.3" cy="194.5" r="42.5"/>
<circle class="st0" cx="299.8" cy="205.5" r="28.8"/>
<circle class="st0" cx="107.8" cy="44.3" r="28.8"/>
</svg>
